<svg width="48" height="48" viewBox="0 0 48 48" fill="none" xmlns="http://www.w3.org/2000/svg">
<g clip-path="url(#clip0_461_684)">
<path d="M42 10.5C35.7356 12.18 30.7922 13.5 24 13.5C17.2078 13.5 12.2644 12.18 6 10.5L4.5 15.2812C9 17.2059 13.5666 18.5775 18.3 20.2687L13.5 46.5L18.7875 48L23.0625 31.5H24.9375L29.2125 48L34.5 46.5L29.7 20.2687C34.4306 18.7434 39 17.2059 43.5 15.375L42 10.5Z" fill="#C1C7CD"/>
<path d="M24 10.5C22.9617 10.5 21.9466 10.1921 21.0833 9.61522C20.2199 9.03834 19.547 8.2184 19.1496 7.25909C18.7523 6.29978 18.6483 5.24418 18.8509 4.22578C19.0535 3.20738 19.5535 2.27192 20.2877 1.53769C21.0219 0.803466 21.9574 0.303452 22.9758 0.10088C23.9942 -0.101693 25.0498 0.00227478 26.0091 0.399635C26.9684 0.796995 27.7883 1.4699 28.3652 2.33326C28.9421 3.19662 29.25 4.21165 29.25 5.25C29.2485 6.64193 28.6949 7.97642 27.7107 8.96067C26.7264 9.94491 25.3919 10.4985 24 10.5Z" fill="#21272A"/>
</g>
<defs>
<clipPath id="clip0_461_684">
<rect width="48" height="48" fill="white"/>
</clipPath>
</defs>
</svg>
