<svg width="48" height="48" viewBox="0 0 48 48" fill="none" xmlns="http://www.w3.org/2000/svg">
<path d="M24 3C16.3125 6.47438 11.3794 8.10563 3 9C3 16.2741 3.49406 21.5025 5.37094 26.2978C6.90564 30.2081 9.17926 33.7861 12.0675 36.8363C16.7175 41.7731 21.8334 44.3737 24 45C26.1666 44.3737 31.2825 41.7731 35.9325 36.8363C38.8207 33.7861 41.0944 30.2081 42.6291 26.2978C44.5059 21.5025 45 16.2741 45 9C36.6206 8.10563 31.6875 6.47438 24 3ZM39.1378 24.9309C37.7769 28.3943 35.7617 31.5633 33.2025 34.2647C29.625 38.0625 25.9359 40.1541 24 41.0025V7.10625C27.6328 8.7 30.4434 9.75938 33.1809 10.5647C35.8111 11.334 38.493 11.9142 41.2059 12.3009C41.0447 17.9466 40.4222 21.6469 39.1378 24.9309Z" fill="#C1C7CD"/>
</svg>
