<svg width="24" height="24" viewBox="0 0 24 24" fill="none" xmlns="http://www.w3.org/2000/svg">
<path fill-rule="evenodd" clip-rule="evenodd" d="M10.4913 0.0723704C10.4471 0.077669 10.4029 0.0829677 10.3597 0.0881231C10.1008 0.113905 9.6049 0.196407 9.2578 0.268596C8.91069 0.340785 8.37625 0.47485 8.07322 0.572821C7.77019 0.665636 7.26331 0.856421 6.94375 0.995643C6.62419 1.13486 6.12832 1.39784 5.84182 1.57831C5.55532 1.75363 5.18067 2.00629 5.01538 2.1352C4.85009 2.26411 4.51951 2.54771 4.28259 2.77459C4.05119 2.99631 3.68755 3.39335 3.47819 3.65633C3.26882 3.91414 2.96579 4.35244 2.8005 4.62057C2.63521 4.8887 2.3983 5.32183 2.27709 5.57449C2.15588 5.82716 1.97957 6.23451 1.8859 6.47686C1.79775 6.71921 1.66001 7.13687 1.58287 7.405C1.50574 7.67313 1.39004 8.12689 1.32943 8.41049C1.26331 8.69409 1.17516 9.19426 1.12557 9.51911C1.0815 9.85427 1.0264 10.7102 1.00987 11.4785C0.987833 12.3551 1.00436 13.1234 1.04293 13.6184C1.0815 14.0464 1.15863 14.6703 1.21924 15.0106C1.27984 15.351 1.41758 15.9439 1.51676 16.3255C1.62144 16.7071 1.76469 17.1815 1.83632 17.3826C1.90794 17.5837 2.07323 17.9755 2.20546 18.2591C2.33218 18.5427 2.55257 18.9604 2.69031 19.1873C2.82805 19.4142 3.05395 19.7596 3.1972 19.9607C3.34045 20.1618 3.57736 20.4609 3.73163 20.6311C3.88039 20.8012 4.1724 21.1003 4.38728 21.2962C4.59664 21.4922 4.93824 21.7861 5.15312 21.9408C5.36799 22.1006 5.72612 22.3378 5.95201 22.4719C6.17791 22.606 6.65174 22.838 6.99884 22.9927C7.34595 23.1474 7.79223 23.3279 7.99058 23.3897C8.18893 23.4516 8.58562 23.5547 8.87212 23.6218C9.15862 23.694 9.6049 23.7816 9.86386 23.8229C10.1228 23.8641 10.6683 23.926 11.076 23.9621C11.5167 23.9982 12.1779 24.0085 12.7013 23.993C13.1862 23.9776 13.8694 23.926 14.2165 23.8847C14.5636 23.8383 15.098 23.7455 15.401 23.6733C15.7041 23.596 16.1393 23.4825 16.3652 23.4104C16.5911 23.3433 17.076 23.1474 17.4396 22.9772C17.8032 22.8071 18.3377 22.5131 18.6242 22.3224C18.9107 22.1264 19.4341 21.7036 19.7867 21.3787C20.1999 20.9869 20.547 20.6104 20.784 20.2701C20.9878 19.9865 21.2413 19.5792 21.3459 19.3678C21.4506 19.1564 21.5994 18.7696 21.682 18.517C21.7592 18.2643 21.8583 17.8415 21.9024 17.5888C21.9465 17.3362 21.9851 16.9236 21.9851 16.6761C21.9851 16.4235 21.9575 16.0419 21.9244 15.8253C21.8969 15.6036 21.8087 15.2014 21.7316 14.9333C21.6545 14.6652 21.5112 14.2836 21.4121 14.0825C21.3129 13.8814 21.12 13.5514 20.9768 13.3503C20.8335 13.144 20.525 12.7831 20.2881 12.5562C20.0567 12.3242 19.66 11.9942 19.4121 11.8188C19.1641 11.6487 18.7068 11.3754 18.3928 11.2207L17.8143 10.9371C17.7151 10.0554 17.6269 9.5913 17.5553 9.33864C17.4892 9.08598 17.3514 8.69925 17.2523 8.48784C17.1586 8.27643 16.9823 7.95158 16.8666 7.76595C16.7454 7.58032 16.4919 7.27094 16.3046 7.07499C16.1118 6.87905 15.8032 6.62123 15.6214 6.50264C15.4396 6.37889 15.1641 6.22419 15.0154 6.15201C14.8611 6.07982 14.6021 5.97669 14.4369 5.91997C14.2716 5.85809 13.9851 5.77559 13.8032 5.73434C13.6214 5.69309 13.1862 5.63121 12.8391 5.59512C12.3487 5.54871 12.0732 5.54871 11.6269 5.60028C11.3074 5.63121 10.8776 5.7034 10.6628 5.75497C10.4479 5.80653 10.0898 5.91997 9.86386 6.00763C9.63796 6.09529 9.26331 6.28091 9.03741 6.42014C8.81152 6.56451 8.49747 6.7914 8.34871 6.92546C8.19444 7.05953 7.95201 7.30703 7.80876 7.47203C7.66551 7.63188 7.54981 7.78142 7.54981 7.8072C7.5443 7.82782 7.93548 8.09595 8.41482 8.40534C8.89416 8.71472 9.30738 8.97769 9.34044 8.98801C9.3735 8.99832 9.43961 8.95191 9.4892 8.87972C9.5443 8.80753 9.69306 8.65284 9.81978 8.53425C9.95201 8.4208 10.1669 8.26096 10.3046 8.17846C10.4424 8.09595 10.7509 7.96705 10.9933 7.8897C11.3955 7.75563 11.5057 7.74532 12.233 7.74017C12.9107 7.74017 13.098 7.75563 13.4451 7.85876C13.671 7.92064 13.9685 8.03408 14.1063 8.11142C14.244 8.18877 14.4754 8.36924 14.6297 8.51362C14.7895 8.66315 14.9933 8.9416 15.109 9.15817C15.2192 9.36958 15.357 9.7099 15.4121 9.91615C15.4672 10.1224 15.5002 10.2977 15.4837 10.3132C15.4672 10.3287 15.3184 10.3183 15.1531 10.2874C14.9878 10.2616 14.3156 10.2255 13.6655 10.2049C12.8721 10.1843 12.2881 10.1946 11.9024 10.241C11.5829 10.2719 11.087 10.3596 10.8005 10.4266C10.4864 10.4988 10.0347 10.6638 9.67102 10.834C9.27983 11.0145 8.92171 11.231 8.66276 11.4373C8.44237 11.6178 8.16138 11.891 8.03466 12.0457C7.91344 12.2004 7.72612 12.4892 7.62694 12.6903C7.52777 12.8914 7.40656 13.2111 7.35697 13.4122C7.29636 13.6287 7.26331 13.9845 7.26331 14.3145C7.26331 14.6445 7.29636 15.0003 7.35697 15.2169C7.40656 15.418 7.52777 15.7377 7.62694 15.9388C7.72612 16.1399 7.92997 16.4493 8.07873 16.6297C8.22749 16.8154 8.53603 17.1041 8.76193 17.2691C8.98782 17.4393 9.3735 17.6662 9.61592 17.7744C9.85835 17.8827 10.2826 18.0323 10.5526 18.1045C10.8501 18.187 11.3019 18.254 11.682 18.2798C12.0291 18.3056 12.525 18.3056 12.784 18.2849C13.0429 18.2643 13.4121 18.2076 13.6104 18.1663C13.8088 18.1199 14.1063 18.0374 14.2716 17.9755C14.4369 17.9188 14.7013 17.8054 14.8501 17.7332C15.0043 17.661 15.2357 17.5269 15.3735 17.4393C15.5112 17.3568 15.7426 17.1763 15.8914 17.0474C16.0402 16.9185 16.3101 16.6297 16.4919 16.4029C16.6738 16.176 16.9052 15.815 17.0099 15.6036C17.1145 15.3922 17.2468 15.0983 17.3019 14.9591C17.3625 14.8147 17.4561 14.5259 17.5112 14.3145C17.5718 14.1031 17.638 13.7937 17.6545 13.6287C17.671 13.4689 17.7041 13.3348 17.7316 13.3348C17.7537 13.3348 17.8694 13.3967 17.9906 13.4689C18.1118 13.5462 18.3432 13.7267 18.5085 13.8711C18.6683 14.0155 18.8997 14.263 19.0264 14.4177C19.1476 14.5723 19.3184 14.8405 19.401 15.0106C19.4837 15.1808 19.5884 15.5005 19.6379 15.7222C19.6875 15.9388 19.7261 16.3564 19.7261 16.6452C19.7261 17.0474 19.693 17.3052 19.5884 17.6919C19.5112 17.9755 19.357 18.3674 19.2523 18.5685C19.1421 18.7696 18.9272 19.0893 18.7674 19.2853C18.6132 19.4812 18.2881 19.8164 18.0457 20.0226C17.8032 20.234 17.4341 20.5125 17.2192 20.6465C17.0043 20.7755 16.6242 20.9817 16.3652 21.1003C16.1063 21.2189 15.7371 21.3633 15.5388 21.42C15.3404 21.4819 15.0099 21.5695 14.795 21.6108C14.5801 21.6572 14.1504 21.7294 13.8308 21.7706C13.5057 21.8119 12.828 21.848 12.2881 21.848C11.7592 21.848 11.098 21.8222 10.828 21.7913C10.5581 21.7603 10.0953 21.6881 9.80876 21.6314C9.52226 21.5798 9.087 21.4716 8.84457 21.3994C8.60215 21.322 8.17791 21.1622 7.90793 21.0487C7.63796 20.9301 7.25229 20.729 7.05394 20.6053C6.85559 20.4815 6.61868 20.3268 6.53053 20.2547C6.44237 20.1876 6.23851 20.0226 6.08976 19.8886C5.93548 19.7596 5.66551 19.4915 5.4837 19.2904C5.30739 19.0893 5.05394 18.7799 4.92722 18.5943C4.8005 18.4087 4.59664 18.0735 4.47543 17.8466C4.35973 17.6198 4.16689 17.2124 4.06221 16.9443C3.95202 16.6761 3.79775 16.2327 3.72061 15.9646C3.64348 15.6964 3.53328 15.222 3.47268 14.9075C3.41758 14.593 3.33494 14.098 3.29637 13.7989C3.25229 13.474 3.22474 12.7212 3.23025 11.9168C3.23025 10.9423 3.2578 10.4008 3.32392 9.93162C3.37901 9.57583 3.47268 9.05504 3.53328 8.77144C3.59389 8.48784 3.70408 8.04439 3.78122 7.79173C3.86386 7.53907 4.04017 7.075 4.17791 6.76046C4.31565 6.44592 4.55257 5.99731 4.70133 5.75497C4.84458 5.51262 5.08149 5.16714 5.22474 4.98151C5.36799 4.79588 5.68204 4.46072 5.92998 4.23384C6.1724 4.00696 6.60766 3.6718 6.89416 3.48617C7.18066 3.30569 7.66 3.04788 7.96303 2.91381C8.26606 2.77974 8.71785 2.60958 8.97129 2.5374C9.21923 2.46521 9.70408 2.35692 10.0402 2.3002C10.3818 2.24348 11.0209 2.17129 11.4616 2.1352C12.0567 2.09395 12.4479 2.09395 13.0043 2.1352C13.4121 2.17129 14.0346 2.24348 14.3818 2.3002C14.7289 2.36208 15.2743 2.49099 15.5939 2.58896C15.9134 2.68693 16.3707 2.85709 16.6132 2.96537C16.8556 3.0685 17.2743 3.29538 17.5498 3.46038C17.8418 3.64086 18.2881 3.99149 18.6297 4.31118C19.0154 4.67213 19.3349 5.03307 19.5884 5.39402C19.7977 5.69309 20.0732 6.14685 20.1999 6.39951C20.3267 6.65217 20.5195 7.09046 20.6297 7.36891C20.7399 7.64219 20.828 7.90517 20.828 7.94642C20.828 7.98767 20.8611 8.03923 20.8997 8.0547C20.9327 8.07017 21.1641 8.03924 21.4065 7.98251C21.649 7.92579 22.0952 7.81751 22.3983 7.74017C22.7013 7.66282 22.9713 7.58547 22.9933 7.57001C23.0209 7.54938 22.9603 7.29156 22.8666 6.99249C22.7674 6.69342 22.5746 6.20873 22.4424 5.90966C22.3046 5.61059 22.1063 5.2187 21.9961 5.03307C21.8859 4.84745 21.6875 4.53291 21.5553 4.33697C21.4176 4.14102 21.1421 3.78008 20.9382 3.53773C20.7344 3.29538 20.3101 2.87256 19.9961 2.58896C19.6765 2.31052 19.1531 1.91348 18.817 1.70206C18.4864 1.49581 18.0126 1.23799 17.7702 1.12455C17.5278 1.01111 17.1421 0.851265 16.9162 0.763607C16.6903 0.681105 16.2936 0.552196 16.0346 0.480007C15.7757 0.407818 15.3955 0.315003 15.1807 0.268596C14.9658 0.227345 14.547 0.155156 14.244 0.108749C13.9024 0.0571849 13.2247 0.0210904 12.4534 0.00562131C11.7702 -0.00469141 11.1256 0.000464949 11.0209 0.0107777C10.9336 0.0193719 10.7125 0.0458715 10.4913 0.0723704ZM12.0126 12.3551C11.8143 12.3808 11.4837 12.453 11.2688 12.5149C11.0539 12.5768 10.7564 12.6851 10.6077 12.7572C10.4534 12.8294 10.1999 13.0048 10.0402 13.1491C9.88039 13.2987 9.69857 13.5255 9.62695 13.6699C9.53879 13.8659 9.50573 14.0257 9.50573 14.3403C9.50573 14.6548 9.53879 14.8095 9.62695 14.9848C9.69306 15.1137 9.85835 15.32 9.99058 15.4489C10.1283 15.5778 10.3597 15.7428 10.503 15.8201C10.6517 15.8975 10.9823 16.0058 11.2413 16.0625C11.5278 16.1295 11.8914 16.1708 12.1779 16.1708C12.4369 16.1708 12.817 16.1347 13.0319 16.0934C13.2468 16.0522 13.5884 15.9387 13.8033 15.8408C14.0677 15.7222 14.2881 15.5675 14.5085 15.3509C14.6958 15.1601 14.8997 14.8868 15.0154 14.6651C15.1201 14.4588 15.2688 14.0567 15.3459 13.7731C15.4231 13.4895 15.5057 13.0924 15.5278 12.8913L15.5663 12.5201C15.3378 12.4782 15.1227 12.4447 14.9372 12.4159C14.917 12.4127 14.8971 12.4097 14.8776 12.4066C14.6793 12.3757 14.0347 12.3396 13.4451 12.3293C12.8556 12.319 12.211 12.3293 12.0126 12.3551Z" fill="white"/>
</svg>
